<?xml version="1.0" encoding="utf-8"?>
<!-- Generator: Adobe Illustrator 23.0.1, SVG Export Plug-In . SVG Version: 6.00 Build 0)  -->
<svg version="1.1" id="Layer_1" xmlns="http://www.w3.org/2000/svg" xmlns:xlink="http://www.w3.org/1999/xlink" x="0px" y="0px"
	 viewBox="0 0 255.1 255.1" style="enable-background:new 0 0 255.1 255.1;" xml:space="preserve">
<style type="text/css">
	.st0{fill:#0072BC;}
	.st1{fill:#2E3192;}
	.st2{fill:#B9E5FB;}
	.st3{fill:#6DCFF6;}
	.st4{fill:#FFFFFF;}
</style>
<polygon class="st0" points="90.1,127.5 90.1,90.2 63.8,63.9 63.8,101.2 63.8,101.2 "/>
<polygon class="st1" points="63.8,63.9 90.1,90.2 90.1,90.2 127.4,90.2 101.1,63.9 "/>
<polygon class="st2" points="191,101.2 191,63.9 164.7,90.2 164.7,127.5 164.7,127.5 "/>
<polygon class="st3" points="127.4,90.2 164.7,90.2 191,63.9 153.7,63.9 "/>
<g>
	<polygon class="st2" points="63.8,153.8 63.8,191.1 90.1,164.8 90.1,127.5 90.1,127.5 	"/>
	<polygon class="st3" points="127.4,164.8 90.1,164.8 63.8,191.1 101.1,191.1 	"/>
</g>
<g>
	<polygon class="st0" points="164.7,127.5 164.7,164.8 191,191.1 191,153.8 191,153.8 	"/>
	<polygon class="st1" points="191,191.1 164.7,164.8 164.7,164.8 127.4,164.8 153.7,191.1 	"/>
</g>
<rect x="90.1" y="90.2" class="st4" width="74.5" height="74.5"/>
</svg>
